<svg xmlns="http://www.w3.org/2000/svg" viewBox="0 0 435 62" fill-rule="evenodd" clip-rule="evenodd" stroke-linejoin="round" stroke-miterlimit="2">
  <style>
    path {
      fill: #111;
    }

    @media (prefers-color-scheme: dark) {
      path {
        fill: #eee;
      }
    }
  </style>
  <path d="M-.003 48.796h8.256V27.548c0-4.288 2.816-7.168 6.4-7.168 3.456 0 5.824 2.304 5.824 5.888v22.528h8.064v-21.76c0-3.968 2.368-6.656 6.336-6.656 3.328 0 5.952 1.92 5.952 6.272v22.144h8.256V25.372c0-7.808-4.48-11.968-10.88-11.968-5.12 0-8.96 2.56-10.496 6.4h-.384c-1.344-3.968-4.736-6.4-9.408-6.4s-8.192 2.432-9.664 6.4h-.384v-5.888H-.003v34.88zM65.655 49.5c5.504 0 8.768-2.56 10.24-5.504h.256v4.8h7.936v-23.36c0-9.216-7.552-12.032-14.208-12.032-7.296 0-12.928 3.328-14.784 9.664l7.68 1.088c.832-2.368 3.136-4.416 7.168-4.416 3.84 0 5.888 1.92 5.888 5.376v.128c0 2.368-2.432 2.496-8.576 3.136-6.784.704-13.312 2.752-13.312 10.624 0 6.848 5.056 10.496 11.712 10.496zm2.112-6.016c-3.392 0-5.888-1.6-5.888-4.608 0-3.2 2.752-4.48 6.464-4.992 2.176-.32 6.464-.832 7.552-1.728v4.096c0 3.904-3.136 7.232-8.128 7.232zM90.535 48.796h8.256V28.252c0-4.416 3.328-7.552 7.808-7.552 1.408 0 3.136.256 3.84.512v-7.616c-.768-.128-2.048-.192-2.944-.192-4.032 0-7.36 2.24-8.64 6.272h-.32v-5.76h-8v34.88zM115.076 48.796h8.256v-34.88h-8.256v34.88zm4.16-39.872c2.624 0 4.736-1.984 4.736-4.416 0-2.496-2.112-4.48-4.736-4.48-2.688 0-4.8 1.984-4.8 4.48 0 2.432 2.112 4.416 4.8 4.416zM139.961 49.5c5.504 0 8.768-2.56 10.24-5.504h.256v4.8h7.936v-23.36c0-9.216-7.552-12.032-14.208-12.032-7.296 0-12.928 3.328-14.784 9.664l7.68 1.088c.832-2.368 3.136-4.416 7.168-4.416 3.84 0 5.888 1.92 5.888 5.376v.128c0 2.368-2.432 2.496-8.576 3.136-6.784.704-13.312 2.752-13.312 10.624 0 6.848 5.056 10.496 11.712 10.496zm2.112-6.016c-3.392 0-5.888-1.6-5.888-4.608 0-3.2 2.752-4.48 6.464-4.992 2.176-.32 6.464-.832 7.552-1.728v4.096c0 3.904-3.136 7.232-8.128 7.232zM176.769 49.436c6.016 0 8.704-3.584 10.048-6.144h.512v5.504h8.064V2.268h-8.256v17.408h-.32c-1.28-2.56-3.84-6.272-9.984-6.272-8.064 0-14.4 6.336-14.4 17.984 0 11.52 6.144 18.048 14.336 18.048zm2.304-6.784c-5.44 0-8.256-4.736-8.256-11.328 0-6.464 2.816-11.136 8.256-11.136 5.312 0 8.256 4.352 8.256 11.136 0 6.784-3.008 11.328-8.256 11.328zM201.721 48.796h8.064v-5.504h.512c1.28 2.56 3.968 6.144 9.984 6.144 8.192 0 14.4-6.528 14.4-18.048 0-11.648-6.336-17.984-14.4-17.984-6.208 0-8.768 3.712-9.984 6.272h-.384V2.268h-8.192v46.528zm8.064-17.472c0-6.784 2.88-11.136 8.192-11.136 5.504 0 8.32 4.672 8.32 11.136 0 6.592-2.88 11.328-8.32 11.328-5.248 0-8.192-4.544-8.192-11.328zM241.153 26.332h20.352v4.992h-20.352zM280.387 49.628c6.08 0 9.28-3.264 10.368-5.568h.256v4.736h5.376V25.82c0-11.136-8.448-12.416-12.864-12.416-5.312 0-11.328 1.856-14.016 8.192l5.056 1.856c1.216-2.56 3.968-5.312 9.088-5.312 4.928 0 7.36 2.624 7.36 7.104v.192c0 2.56-2.624 2.368-8.96 3.2-6.464.832-13.568 2.24-13.568 10.24 0 6.848 5.312 10.752 11.904 10.752zm.832-4.8c-4.288 0-7.36-1.92-7.36-5.696 0-4.032 3.712-5.312 7.936-5.888 2.24-.256 8.32-.896 9.216-1.984v4.928c0 4.352-3.456 8.64-9.792 8.64zM305.393 2.268h5.376v46.528h-5.376zM319.73 61.916h5.376V43.42h.448c1.152 1.92 3.456 6.08 10.176 6.08 8.704 0 14.784-6.976 14.784-18.048 0-11.008-6.08-18.048-14.912-18.048-6.784 0-8.896 4.224-10.048 6.016h-.64v-5.504h-5.184v48zm5.248-30.592c0-7.808 3.456-13.056 9.984-13.056 6.848 0 10.176 5.696 10.176 13.056 0 7.488-3.456 13.376-10.176 13.376-6.464 0-9.984-5.44-9.984-13.376zM356.886 48.796h5.376v-34.88h-5.376v34.88zm2.688-40.704c2.112 0 3.84-1.664 3.84-3.648 0-1.984-1.728-3.648-3.84-3.648-2.048 0-3.776 1.664-3.776 3.648 0 1.984 1.728 3.648 3.776 3.648zM376.599 27.804c0-6.08 3.712-9.536 8.896-9.536 4.928 0 8 3.264 8 8.704v21.824h5.376V26.588c0-8.896-4.8-13.184-11.84-13.184-5.312 0-8.576 2.368-10.176 5.952h-.448v-5.44h-5.184v34.88h5.376V27.804zM420.424 49.5c7.104 0 12.288-3.52 13.952-8.768l-5.184-1.472c-1.408 3.648-4.544 5.44-8.768 5.44-6.272 0-10.624-4.032-10.88-11.52h25.344v-2.304c0-12.992-7.68-17.472-14.976-17.472-9.472 0-15.744 7.488-15.744 18.24 0 10.688 6.208 17.856 16.256 17.856zm-10.88-20.992c.384-5.44 4.224-10.24 10.368-10.24 5.824 0 9.536 4.352 9.536 10.24h-19.904z" fill-rule="nonzero"/>
</svg>
